<mxfile host="app.diagrams.net" modified="2024-01-30T09:44:22.682Z" agent="Mozilla/5.0 (Windows NT 10.0; Win64; x64) AppleWebKit/537.36 (KHTML, like Gecko) Chrome/121.0.0.0 Safari/537.36" etag="5CBstpTXtz6bNJL53HXJ" version="23.0.2" type="device">
  <diagram id="C5RBs43oDa-KdzZeNtuy" name="Page-1">
    <mxGraphModel dx="519" dy="453" grid="1" gridSize="10" guides="1" tooltips="1" connect="1" arrows="1" fold="1" page="1" pageScale="1" pageWidth="1169" pageHeight="827" math="0" shadow="0">
      <root>
        <mxCell id="WIyWlLk6GJQsqaUBKTNV-0" />
        <mxCell id="WIyWlLk6GJQsqaUBKTNV-1" parent="WIyWlLk6GJQsqaUBKTNV-0" />
        <mxCell id="sRRFV7_7wjg3xSlhUVXf-0" value="시작" style="ellipse;whiteSpace=wrap;html=1;" parent="WIyWlLk6GJQsqaUBKTNV-1" vertex="1">
          <mxGeometry x="120" width="230" height="80" as="geometry" />
        </mxCell>
        <mxCell id="sRRFV7_7wjg3xSlhUVXf-1" value="종료" style="ellipse;whiteSpace=wrap;html=1;" parent="WIyWlLk6GJQsqaUBKTNV-1" vertex="1">
          <mxGeometry x="145" y="560" width="180" height="80" as="geometry" />
        </mxCell>
        <mxCell id="sRRFV7_7wjg3xSlhUVXf-2" value="h : 산의 높이를 기억할 변수&lt;br&gt;t : 초를 기억할 변수&lt;br&gt;a : A의 고도를 기억할 변수&lt;br&gt;b : B의 고도를 기억할 변수" style="shape=hexagon;perimeter=hexagonPerimeter2;whiteSpace=wrap;html=1;fixedSize=1;" parent="WIyWlLk6GJQsqaUBKTNV-1" vertex="1">
          <mxGeometry x="120" y="110" width="230" height="70" as="geometry" />
        </mxCell>
        <mxCell id="T9WwIiPP8sTk7T_uKFg4-0" value="" style="endArrow=classic;html=1;rounded=0;exitX=0.5;exitY=1;exitDx=0;exitDy=0;entryX=0.5;entryY=0;entryDx=0;entryDy=0;" edge="1" parent="WIyWlLk6GJQsqaUBKTNV-1" source="sRRFV7_7wjg3xSlhUVXf-0" target="sRRFV7_7wjg3xSlhUVXf-2">
          <mxGeometry width="50" height="50" relative="1" as="geometry">
            <mxPoint x="250" y="170" as="sourcePoint" />
            <mxPoint x="300" y="120" as="targetPoint" />
          </mxGeometry>
        </mxCell>
        <mxCell id="T9WwIiPP8sTk7T_uKFg4-1" value="h = 1753&lt;br&gt;t = 0&lt;br&gt;a = 0&lt;br&gt;b = 1753" style="rounded=0;whiteSpace=wrap;html=1;" vertex="1" parent="WIyWlLk6GJQsqaUBKTNV-1">
          <mxGeometry x="120" y="210" width="230" height="70" as="geometry" />
        </mxCell>
        <mxCell id="T9WwIiPP8sTk7T_uKFg4-2" value="" style="endArrow=classic;html=1;rounded=0;exitX=0.5;exitY=1;exitDx=0;exitDy=0;" edge="1" parent="WIyWlLk6GJQsqaUBKTNV-1" source="sRRFV7_7wjg3xSlhUVXf-2" target="T9WwIiPP8sTk7T_uKFg4-1">
          <mxGeometry width="50" height="50" relative="1" as="geometry">
            <mxPoint x="250" y="220" as="sourcePoint" />
            <mxPoint x="300" y="170" as="targetPoint" />
          </mxGeometry>
        </mxCell>
        <mxCell id="T9WwIiPP8sTk7T_uKFg4-3" value="a &amp;gt;= b" style="rhombus;whiteSpace=wrap;html=1;" vertex="1" parent="WIyWlLk6GJQsqaUBKTNV-1">
          <mxGeometry x="120" y="330" width="230" height="80" as="geometry" />
        </mxCell>
        <mxCell id="T9WwIiPP8sTk7T_uKFg4-4" value="" style="endArrow=classic;html=1;rounded=0;exitX=0.5;exitY=1;exitDx=0;exitDy=0;" edge="1" parent="WIyWlLk6GJQsqaUBKTNV-1" source="T9WwIiPP8sTk7T_uKFg4-3" target="T9WwIiPP8sTk7T_uKFg4-5">
          <mxGeometry width="50" height="50" relative="1" as="geometry">
            <mxPoint x="250" y="460" as="sourcePoint" />
            <mxPoint x="235" y="470" as="targetPoint" />
          </mxGeometry>
        </mxCell>
        <mxCell id="T9WwIiPP8sTk7T_uKFg4-5" value="print t&amp;nbsp;" style="shape=parallelogram;perimeter=parallelogramPerimeter;whiteSpace=wrap;html=1;fixedSize=1;" vertex="1" parent="WIyWlLk6GJQsqaUBKTNV-1">
          <mxGeometry x="125" y="460" width="220" height="60" as="geometry" />
        </mxCell>
        <mxCell id="T9WwIiPP8sTk7T_uKFg4-6" value="" style="endArrow=classic;html=1;rounded=0;exitX=0.5;exitY=1;exitDx=0;exitDy=0;entryX=0.5;entryY=0;entryDx=0;entryDy=0;" edge="1" parent="WIyWlLk6GJQsqaUBKTNV-1" source="T9WwIiPP8sTk7T_uKFg4-5" target="sRRFV7_7wjg3xSlhUVXf-1">
          <mxGeometry width="50" height="50" relative="1" as="geometry">
            <mxPoint x="250" y="650" as="sourcePoint" />
            <mxPoint x="300" y="600" as="targetPoint" />
          </mxGeometry>
        </mxCell>
        <mxCell id="T9WwIiPP8sTk7T_uKFg4-7" value="" style="endArrow=classic;html=1;rounded=0;exitX=0.5;exitY=1;exitDx=0;exitDy=0;entryX=0.5;entryY=0;entryDx=0;entryDy=0;" edge="1" parent="WIyWlLk6GJQsqaUBKTNV-1" source="T9WwIiPP8sTk7T_uKFg4-1" target="T9WwIiPP8sTk7T_uKFg4-3">
          <mxGeometry width="50" height="50" relative="1" as="geometry">
            <mxPoint x="180" y="450" as="sourcePoint" />
            <mxPoint x="270" y="320" as="targetPoint" />
          </mxGeometry>
        </mxCell>
        <mxCell id="T9WwIiPP8sTk7T_uKFg4-8" value="YES" style="text;html=1;strokeColor=none;fillColor=none;align=center;verticalAlign=middle;whiteSpace=wrap;rounded=0;" vertex="1" parent="WIyWlLk6GJQsqaUBKTNV-1">
          <mxGeometry x="180" y="420" width="60" height="30" as="geometry" />
        </mxCell>
        <mxCell id="T9WwIiPP8sTk7T_uKFg4-9" value="" style="endArrow=classic;html=1;rounded=0;exitX=1;exitY=0.5;exitDx=0;exitDy=0;" edge="1" parent="WIyWlLk6GJQsqaUBKTNV-1" source="T9WwIiPP8sTk7T_uKFg4-3">
          <mxGeometry width="50" height="50" relative="1" as="geometry">
            <mxPoint x="250" y="440" as="sourcePoint" />
            <mxPoint x="410" y="370" as="targetPoint" />
          </mxGeometry>
        </mxCell>
        <mxCell id="T9WwIiPP8sTk7T_uKFg4-10" value="t = t + 1&lt;br&gt;a = a + 0.75&lt;br&gt;b = b - 1.03" style="rounded=0;whiteSpace=wrap;html=1;" vertex="1" parent="WIyWlLk6GJQsqaUBKTNV-1">
          <mxGeometry x="410" y="340" width="120" height="60" as="geometry" />
        </mxCell>
        <mxCell id="T9WwIiPP8sTk7T_uKFg4-11" value="" style="endArrow=classic;html=1;rounded=0;exitX=0.5;exitY=0;exitDx=0;exitDy=0;" edge="1" parent="WIyWlLk6GJQsqaUBKTNV-1" source="T9WwIiPP8sTk7T_uKFg4-10">
          <mxGeometry width="50" height="50" relative="1" as="geometry">
            <mxPoint x="340" y="350" as="sourcePoint" />
            <mxPoint x="240" y="300" as="targetPoint" />
            <Array as="points">
              <mxPoint x="470" y="300" />
            </Array>
          </mxGeometry>
        </mxCell>
        <mxCell id="T9WwIiPP8sTk7T_uKFg4-12" value="NO" style="text;html=1;strokeColor=none;fillColor=none;align=center;verticalAlign=middle;whiteSpace=wrap;rounded=0;" vertex="1" parent="WIyWlLk6GJQsqaUBKTNV-1">
          <mxGeometry x="350" y="340" width="60" height="30" as="geometry" />
        </mxCell>
        <mxCell id="T9WwIiPP8sTk7T_uKFg4-13" value="&lt;h1&gt;예제&lt;/h1&gt;&lt;p&gt;&lt;br&gt;&lt;/p&gt;&lt;p style=&quot;font-size: 14px; line-height: 30%;&quot;&gt;&lt;font style=&quot;font-size: 14px;&quot;&gt;시작&lt;/font&gt;&lt;/p&gt;&lt;p style=&quot;font-size: 14px; line-height: 30%;&quot;&gt;&lt;font style=&quot;font-size: 14px;&quot;&gt;&lt;br&gt;&lt;/font&gt;&lt;/p&gt;&lt;p style=&quot;font-size: 14px; line-height: 30%;&quot;&gt;&lt;font style=&quot;font-size: 14px;&quot;&gt;h: 산의 높이를 기억할 변수 준비&lt;/font&gt;&lt;/p&gt;&lt;p style=&quot;font-size: 14px; line-height: 30%;&quot;&gt;&lt;font style=&quot;font-size: 14px;&quot;&gt;t : 초를 기억할 변수 준비&lt;/font&gt;&lt;/p&gt;&lt;p style=&quot;font-size: 14px; line-height: 30%;&quot;&gt;&lt;font style=&quot;font-size: 14px;&quot;&gt;a : A의 고도를 기억할 변수 준비&lt;/font&gt;&lt;/p&gt;&lt;p style=&quot;font-size: 14px; line-height: 30%;&quot;&gt;&lt;font style=&quot;font-size: 14px;&quot;&gt;b : B의 고도를 기억할 변수 준비&lt;/font&gt;&lt;/p&gt;&lt;p style=&quot;font-size: 14px; line-height: 30%;&quot;&gt;&lt;font style=&quot;font-size: 14px;&quot;&gt;&lt;br&gt;&lt;/font&gt;&lt;/p&gt;&lt;p style=&quot;font-size: 14px; line-height: 30%;&quot;&gt;&lt;font style=&quot;font-size: 14px;&quot;&gt;h = 1753&lt;/font&gt;&lt;/p&gt;&lt;p style=&quot;font-size: 14px; line-height: 30%;&quot;&gt;&lt;font style=&quot;font-size: 14px;&quot;&gt;t = 0&lt;/font&gt;&lt;/p&gt;&lt;p style=&quot;font-size: 14px; line-height: 30%;&quot;&gt;&lt;font style=&quot;font-size: 14px;&quot;&gt;a = 0&lt;/font&gt;&lt;/p&gt;&lt;p style=&quot;font-size: 14px; line-height: 30%;&quot;&gt;&lt;font style=&quot;font-size: 14px;&quot;&gt;b = 1753 ( b = h)&lt;/font&gt;&lt;/p&gt;&lt;p style=&quot;font-size: 14px; line-height: 30%;&quot;&gt;&lt;font style=&quot;font-size: 14px;&quot;&gt;&lt;br&gt;&lt;/font&gt;&lt;/p&gt;&lt;p style=&quot;font-size: 14px; line-height: 30%;&quot;&gt;&lt;font style=&quot;font-size: 14px;&quot;&gt;a &amp;gt;= b 인지 확인&lt;/font&gt;&lt;/p&gt;&lt;p style=&quot;border-color: var(--border-color); font-size: 14px; line-height: 30%;&quot;&gt;&lt;font style=&quot;font-size: 14px;&quot;&gt;&lt;br&gt;&lt;/font&gt;&lt;/p&gt;&lt;p style=&quot;border-color: var(--border-color); font-size: 14px; line-height: 30%;&quot;&gt;&lt;font style=&quot;font-size: 14px;&quot;&gt;거짓이면&lt;/font&gt;&lt;/p&gt;&lt;p style=&quot;border-color: var(--border-color); font-size: 14px; line-height: 30%;&quot;&gt;&lt;font style=&quot;font-size: 14px;&quot;&gt;t = t + 1&lt;/font&gt;&lt;/p&gt;&lt;p style=&quot;border-color: var(--border-color); font-size: 14px; line-height: 30%;&quot;&gt;&lt;font style=&quot;font-size: 14px;&quot;&gt;a = a + 0.75&lt;/font&gt;&lt;/p&gt;&lt;p style=&quot;border-color: var(--border-color); font-size: 14px; line-height: 30%;&quot;&gt;&lt;font style=&quot;font-size: 14px;&quot;&gt;b = b - 1.03&lt;/font&gt;&lt;/p&gt;&lt;p style=&quot;border-color: var(--border-color); font-size: 14px; line-height: 30%;&quot;&gt;&lt;font style=&quot;font-size: 14px;&quot;&gt;&lt;span style=&quot;background-color: initial;&quot;&gt;다시 a &amp;gt;= b 인지 반복해서 확인&lt;/span&gt;&lt;br&gt;&lt;/font&gt;&lt;/p&gt;&lt;p style=&quot;font-size: 14px; line-height: 30%;&quot;&gt;&lt;font style=&quot;font-size: 14px;&quot;&gt;&lt;br&gt;&lt;/font&gt;&lt;/p&gt;&lt;p style=&quot;font-size: 14px; line-height: 30%;&quot;&gt;&lt;font style=&quot;font-size: 14px;&quot;&gt;참이면&lt;/font&gt;&lt;/p&gt;&lt;p style=&quot;font-size: 14px; line-height: 30%;&quot;&gt;&lt;font style=&quot;font-size: 14px;&quot;&gt;print t&lt;/font&gt;&lt;/p&gt;&lt;p style=&quot;line-height: 30%;&quot;&gt;&lt;br&gt;&lt;/p&gt;&lt;p style=&quot;line-height: 30%;&quot;&gt;&lt;span style=&quot;white-space: pre; background-color: initial;&quot;&gt;종료&lt;/span&gt;&lt;br&gt;&lt;/p&gt;" style="text;html=1;strokeColor=default;fillColor=none;spacing=5;spacingTop=-20;whiteSpace=wrap;overflow=hidden;rounded=0;" vertex="1" parent="WIyWlLk6GJQsqaUBKTNV-1">
          <mxGeometry x="585" y="60" width="290" height="510" as="geometry" />
        </mxCell>
      </root>
    </mxGraphModel>
  </diagram>
</mxfile>
